<svg width="8" height="15" viewBox="0 0 8 15" fill="none" xmlns="http://www.w3.org/2000/svg">
<g clip-path="url(#clip0)">
<path d="M7.42298 3.12976e-05H5.57298C5.10911 -0.0261382 4.64502 0.0474847 4.21202 0.215933C3.77902 0.384381 3.38719 0.643737 3.06295 0.976502C2.73872 1.30927 2.48962 1.7077 2.33247 2.14493C2.17532 2.58215 2.11377 3.048 2.15198 3.51103V5.12903H0.291977C0.214799 5.12903 0.140783 5.15969 0.0862103 5.21426C0.0316372 5.26884 0.000976562 5.34285 0.000976562 5.42003V7.76603C0.000976562 7.80425 0.00850439 7.84209 0.0231285 7.87739C0.0377526 7.9127 0.0591884 7.94478 0.0862103 7.9718C0.113232 7.99882 0.145311 8.02026 0.180616 8.03488C0.215922 8.04951 0.253762 8.05703 0.291977 8.05703H2.15198V13.975C2.15198 14.0522 2.18264 14.1262 2.23721 14.1808C2.29178 14.2354 2.3658 14.266 2.44298 14.266H4.86998C4.94716 14.266 5.02117 14.2354 5.07574 14.1808C5.13032 14.1262 5.16098 14.0522 5.16098 13.975V8.05703H7.33598C7.37419 8.05703 7.41203 8.04951 7.44734 8.03488C7.48264 8.02026 7.51472 7.99882 7.54175 7.9718C7.56877 7.94478 7.5902 7.9127 7.60483 7.87739C7.61945 7.84209 7.62698 7.80425 7.62698 7.76603V5.42103C7.62698 5.34385 7.59632 5.26984 7.54175 5.21526C7.48717 5.16069 7.41316 5.13003 7.33598 5.13003H5.15898V3.75703C5.15898 3.09703 5.31598 2.76303 6.17498 2.76303H7.42298C7.50016 2.76303 7.57417 2.73237 7.62875 2.6778C7.68332 2.62323 7.71398 2.54921 7.71398 2.47203V0.294031C7.71437 0.255565 7.70714 0.217402 7.69269 0.181749C7.67825 0.146096 7.65688 0.113662 7.62981 0.0863211C7.60275 0.0589807 7.57054 0.0372772 7.53504 0.0224658C7.49953 0.00765444 7.46145 2.92533e-05 7.42298 3.12976e-05Z" fill="#fff"/>
</g>
<defs>
<clipPath id="clip0">
<rect width="7.713" height="14.266" fill="white"/>
</clipPath>
</defs>
</svg>
