<svg width="14" height="14" viewBox="0 0 14 14" fill="none" xmlns="http://www.w3.org/2000/svg">
<path d="M9.82916 0H4.17084C3.065 0.00111083 2.00478 0.440894 1.22284 1.22284C0.440894 2.00478 0.00111083 3.065 0 4.17084L0 9.82916C0.00111083 10.935 0.440894 11.9952 1.22284 12.7772C2.00478 13.5591 3.065 13.9989 4.17084 14H9.82916C10.935 13.9989 11.9952 13.5591 12.7772 12.7772C13.5591 11.9952 13.9989 10.935 14 9.82916V4.17084C13.9989 3.065 13.5591 2.00478 12.7772 1.22284C11.9952 0.440894 10.935 0.00111083 9.82916 0V0ZM12.588 9.82916C12.5872 10.5606 12.2963 11.2619 11.7791 11.7791C11.2619 12.2963 10.5606 12.5872 9.82916 12.588H4.17084C3.43885 12.588 2.73679 12.2975 2.2189 11.7802C1.70101 11.2629 1.40965 10.5612 1.40881 9.82916V4.17084C1.40881 3.4383 1.69981 2.73577 2.21779 2.21779C2.73577 1.69981 3.4383 1.40881 4.17084 1.40881H9.82916C10.5612 1.40965 11.2629 1.70101 11.7802 2.2189C12.2975 2.73679 12.588 3.43885 12.588 4.17084V9.82916Z" fill="#fff"/>
<path d="M7.00006 3.37891C6.28386 3.37891 5.58375 3.59129 4.98825 3.98919C4.39275 4.38708 3.92863 4.95263 3.65455 5.61431C3.38048 6.27599 3.30876 7.00409 3.44849 7.70653C3.58821 8.40896 3.93309 9.05418 4.43951 9.56061C4.94594 10.067 5.59118 10.4119 6.29361 10.5517C6.99605 10.6914 7.72415 10.6197 8.38583 10.3456C9.04751 10.0715 9.61305 9.60737 10.011 9.01187C10.4088 8.41638 10.6212 7.71626 10.6212 7.00006C10.6201 6.04001 10.2382 5.11961 9.55939 4.44075C8.88053 3.76189 7.96011 3.38002 7.00006 3.37891ZM7.00006 9.21242C6.5625 9.21242 6.13477 9.08266 5.77095 8.83956C5.40713 8.59647 5.12357 8.25095 4.95612 7.84669C4.78868 7.44244 4.74487 6.99762 4.83023 6.56846C4.9156 6.13931 5.12629 5.7451 5.4357 5.4357C5.7451 5.12629 6.13931 4.9156 6.56846 4.83023C6.99761 4.74487 7.44244 4.78868 7.84669 4.95612C8.25095 5.12357 8.59647 5.40713 8.83956 5.77095C9.08266 6.13477 9.21242 6.5625 9.21242 7.00006C9.21242 7.58681 8.97932 8.14953 8.56443 8.56443C8.14953 8.97932 7.58681 9.21242 7.00006 9.21242Z" fill="#fff"/>
<path d="M10.6273 4.27363C11.1064 4.27363 11.4948 3.88522 11.4948 3.4061C11.4948 2.92698 11.1064 2.53857 10.6273 2.53857C10.1482 2.53857 9.75977 2.92698 9.75977 3.4061C9.75977 3.88522 10.1482 4.27363 10.6273 4.27363Z" fill="#fff"/>
</svg>
