<svg width="9" height="15" viewBox="0 0 9 15" fill="none" xmlns="http://www.w3.org/2000/svg">
<g clip-path="url(#clip0)">
<path d="M4.45399 7.72C5.21743 7.72 5.96372 7.49362 6.5985 7.06947C7.23327 6.64533 7.72802 6.04248 8.02017 5.33716C8.31233 4.63184 8.38877 3.85572 8.23983 3.10695C8.09089 2.35819 7.72326 1.6704 7.18343 1.13057C6.6436 0.590739 5.95581 0.22311 5.20705 0.0741706C4.45828 -0.0747684 3.68216 0.00167248 2.97684 0.293827C2.27151 0.585981 1.66866 1.08073 1.24452 1.7155C0.82038 2.35027 0.593994 3.09657 0.593994 3.86C0.593994 4.88374 1.00067 5.86554 1.72456 6.58943C2.44845 7.31332 3.43026 7.72 4.45399 7.72ZM4.45399 1.782C4.86498 1.782 5.26675 1.90387 5.60847 2.13221C5.9502 2.36054 6.21654 2.68508 6.37382 3.06479C6.5311 3.44449 6.57225 3.86231 6.49207 4.2654C6.41189 4.66849 6.21398 5.03876 5.92336 5.32937C5.63275 5.61998 5.26248 5.81789 4.85939 5.89807C4.4563 5.97825 4.03849 5.9371 3.65878 5.77982C3.27908 5.62254 2.95454 5.3562 2.7262 5.01448C2.49787 4.67275 2.376 4.27099 2.376 3.86C2.376 3.30888 2.59493 2.78033 2.98463 2.39063C3.37433 2.00093 3.90287 1.782 4.45399 1.782Z" fill="#fff"/>
<path d="M8.23492 9.54889C8.44118 9.4126 8.61054 9.22742 8.72796 9.00986C8.84537 8.79231 8.90719 8.5491 8.90792 8.30189C8.9112 8.09805 8.85656 7.89747 8.75035 7.72346C8.64414 7.54944 8.49072 7.40915 8.30792 7.31888C8.11924 7.22461 7.90789 7.18513 7.6979 7.20493C7.4879 7.22473 7.28767 7.30301 7.11993 7.43088C6.34678 7.99449 5.41469 8.29816 4.45792 8.29816C3.50115 8.29816 2.56907 7.99449 1.79592 7.43088C1.62787 7.30365 1.4277 7.22578 1.21785 7.206C1.008 7.18622 0.79679 7.2253 0.607926 7.31888C0.425364 7.40917 0.272112 7.54933 0.165924 7.72312C0.0597361 7.89691 0.0049583 8.09723 0.00792708 8.30088C0.00865751 8.5481 0.0704747 8.79133 0.187889 9.00889C0.305304 9.22644 0.474672 9.41159 0.680924 9.54789C1.21887 9.90549 1.80467 10.1852 2.42092 10.3789C2.52559 10.4115 2.63359 10.4415 2.74493 10.4689L0.949921 12.2239C0.827409 12.3297 0.727832 12.4595 0.657303 12.6053C0.586774 12.751 0.546786 12.9097 0.539787 13.0714C0.532789 13.2332 0.55893 13.3947 0.616608 13.546C0.674286 13.6973 0.762281 13.8352 0.875191 13.9512C0.988101 14.0673 1.12355 14.159 1.2732 14.2208C1.42286 14.2826 1.58356 14.3132 1.74545 14.3106C1.90735 14.3081 2.06701 14.2724 2.21464 14.2059C2.36226 14.1394 2.49474 14.0435 2.60393 13.9239L2.63293 13.8949L4.46192 12.0019L6.29492 13.9019C6.51582 14.1204 6.81354 14.2437 7.12425 14.2453C7.43497 14.2469 7.73396 14.1267 7.95711 13.9105C8.18026 13.6943 8.30982 13.3993 8.31801 13.0887C8.3262 12.778 8.21237 12.4766 8.00092 12.2489L7.97192 12.2199L6.17992 10.4669C6.29126 10.4382 6.39959 10.4079 6.50492 10.3759C7.11761 10.1829 7.70002 9.90454 8.23492 9.54889Z" fill="#fff"/>
</g>
<defs>
<clipPath id="clip0">
<rect width="8.908" height="14.266" fill="white"/>
</clipPath>
</defs>
</svg>
