<svg xmlns="http://www.w3.org/2000/svg" width="12" height="12" viewBox="0 0 12 12">
  <metadata><?xpacket begin="﻿" id="W5M0MpCehiHzreSzNTczkc9d"?>
<x:xmpmeta xmlns:x="adobe:ns:meta/" x:xmptk="Adobe XMP Core 5.6-c138 79.159824, 2016/09/14-01:09:01        ">
   <rdf:RDF xmlns:rdf="http://www.w3.org/1999/02/22-rdf-syntax-ns#">
      <rdf:Description rdf:about=""/>
   </rdf:RDF>
</x:xmpmeta>
                                                                                                    
                                                                                                    
                                                                                                    
                                                                                                    
                                                                                                    
                                                                                                    
                                                                                                    
                                                                                                    
                                                                                                    
                                                                                                    
                                                                                                    
                                                                                                    
                                                                                                    
                                                                                                    
                                                                                                    
                                                                                                    
                                                                                                    
                                                                                                    
                                                                                                    
                                                                                                    
                           
<?xpacket end="w"?></metadata>
<defs>
    <style>
      .cls-1 {
        fill: #fff;
        fill-rule: evenodd;
      }
    </style>
  </defs>
  <path id="telegram" class="cls-1" d="M2050.82,916.066a0.456,0.456,0,0,0-.25-0.074,0.42,0.42,0,0,0-.21.06l-11.15,6.434a0.452,0.452,0,0,0-.22.395,0.446,0.446,0,0,0,.27.369l2.65,1.085,7.16-6.2-5.79,7.1v2.339a0.437,0.437,0,0,0,.28.4,0.378,0.378,0,0,0,.15.027,0.413,0.413,0,0,0,.33-0.154l1.62-1.977,3.04,1.24a0.415,0.415,0,0,0,.16.033,0.46,0.46,0,0,0,.21-0.053,0.435,0.435,0,0,0,.21-0.3l1.72-10.294A0.447,0.447,0,0,0,2050.82,916.066Z" transform="translate(-2039 -916)"/>
</svg>
