<svg width="16" height="13" viewBox="0 0 16 13" fill="none" xmlns="http://www.w3.org/2000/svg">
<g clip-path="url(#clip0)">
<path d="M15.072 1.44989C14.5052 1.69715 13.9057 1.8615 13.292 1.93789C13.9387 1.55404 14.4223 0.946339 14.651 0.229888C14.0454 0.589084 13.3829 0.842065 12.692 0.977889C12.2683 0.525606 11.7183 0.211191 11.1136 0.0754809C10.5089 -0.0602292 9.87735 -0.0109625 9.301 0.216884C8.72464 0.444731 8.23012 0.840627 7.88166 1.35315C7.53321 1.86567 7.34692 2.47113 7.347 3.09089C7.34505 3.32617 7.36919 3.56094 7.419 3.79089C6.18975 3.73061 4.98706 3.41158 3.88955 2.85464C2.79205 2.2977 1.82445 1.5154 1.05 0.558887C0.651169 1.23912 0.527389 2.04606 0.703992 2.81456C0.880594 3.58306 1.34423 4.25501 2 4.69289C1.50949 4.68028 1.02926 4.54958 0.6 4.31189V4.34589C0.600126 5.05963 0.846539 5.75147 1.29763 6.30458C1.74873 6.8577 2.37687 7.23822 3.076 7.38189C2.81162 7.45096 2.53924 7.48459 2.266 7.48189C2.06966 7.4853 1.87353 7.46753 1.681 7.42889C1.88055 8.04222 2.26533 8.57859 2.78236 8.96417C3.29939 9.34975 3.92323 9.56556 4.568 9.58189C3.47482 10.4368 2.12676 10.9008 0.739 10.8999C0.492066 10.9023 0.245228 10.889 0 10.8599C1.41284 11.7704 3.05919 12.2521 4.74 12.2469C5.89707 12.255 7.04422 12.0331 8.11481 11.5941C9.1854 11.1551 10.1581 10.5078 10.9764 9.68968C11.7947 8.87158 12.4422 7.89904 12.8815 6.82855C13.3207 5.75806 13.5428 4.61096 13.535 3.45389C13.535 3.31689 13.535 3.18589 13.524 3.05389C14.1332 2.61774 14.6578 2.07419 15.072 1.44989Z" fill="#fff"/>
</g>
<defs>
<clipPath id="clip0">
<rect width="15.072" height="12.246" fill="white"/>
</clipPath>
</defs>
</svg>
