<svg width="512" height="512" viewBox="0 0 512 512" fill="none" xmlns="http://www.w3.org/2000/svg">
<g clip-path="url(#clip0)">
<path d="M188.799 316.582C188.799 311.059 184.322 306.582 178.799 306.582H101.386C95.864 306.582 91.386 311.059 91.386 316.582C91.386 322.105 95.864 326.582 101.386 326.582H178.799C184.321 326.582 188.799 322.105 188.799 316.582Z" fill="white"/>
<path d="M101.386 360.295C95.864 360.295 91.386 364.772 91.386 370.295C91.386 375.818 95.864 380.295 101.386 380.295H154.559C160.082 380.295 164.559 375.818 164.559 370.295C164.559 364.772 160.082 360.295 154.559 360.295H101.386Z" fill="white"/>
<path d="M406.3 393.614C402.997 393.614 399.73 393.46 396.504 393.161V430.91C396.504 437.481 391.231 442.827 384.75 442.827H45.524C39.044 442.827 33.771 437.481 33.771 430.91V158.809H153.529V217.876C153.529 221.158 155.139 224.231 157.839 226.099C160.537 227.967 163.98 228.391 167.052 227.235L215.138 209.134L263.225 227.235C264.367 227.665 265.559 227.876 266.746 227.876C268.753 227.876 270.742 227.272 272.437 226.099C275.136 224.231 276.747 221.158 276.747 217.876V158.809H396.505V200.437C399.73 200.137 402.998 199.984 406.301 199.984C409.743 199.984 413.147 200.15 416.505 200.475V158.808H420.275C425.798 158.808 430.275 154.331 430.275 148.808V59.173C430.275 53.65 425.798 49.173 420.275 49.173H10C4.477 49.173 0 53.65 0 59.173V148.81C0 154.333 4.477 158.81 10 158.81H13.771V430.91C13.771 448.509 28.015 462.827 45.524 462.827H384.751C402.26 462.827 416.505 448.509 416.505 430.91V393.122C413.147 393.448 409.743 393.614 406.3 393.614V393.614ZM276.747 69.173H410.275V138.81H276.747V69.173ZM173.529 68.961H256.747V203.427L218.66 189.091C217.525 188.664 216.331 188.45 215.137 188.45C213.944 188.45 212.749 188.664 211.615 189.091L173.529 203.427V68.961ZM20 138.809V69.173H153.529V138.81H20V138.809Z" fill="white"/>
<path d="M406.3 403.614C464.676 403.614 512 355.791 512 296.799C512 237.807 464.676 189.984 406.3 189.984C347.923 189.984 300.6 237.807 300.6 296.799C300.6 355.791 347.923 403.614 406.3 403.614Z" fill="#00B2FF"/>
<path d="M398.94 322.185C396.288 322.185 393.737 321.13 391.856 319.243L374.565 301.886C370.667 297.973 370.679 291.641 374.592 287.744C378.504 283.847 384.836 283.858 388.735 287.771L398.293 297.366L425.849 264.384C429.39 260.145 435.696 259.581 439.934 263.121C444.172 266.662 444.738 272.969 441.197 277.207L406.616 318.598C404.814 320.755 402.187 322.054 399.38 322.177C399.231 322.182 399.085 322.185 398.94 322.185V322.185Z" fill="white"/>
</g>
<defs>
<clipPath id="clip0">
<rect width="512" height="512" fill="white"/>
</clipPath>
</defs>
</svg>
