<svg width="512" height="512" viewBox="0 0 512 512" fill="none" xmlns="http://www.w3.org/2000/svg">
<path d="M72.037 331.067C66.514 331.067 62.037 335.545 62.037 341.067V426.404C62.037 431.927 66.514 436.404 72.037 436.404H184.857C190.38 436.404 194.857 431.927 194.857 426.404V341.067C194.857 335.545 190.38 331.067 184.857 331.067H72.037ZM174.857 416.404H82.037V351.067H174.857V416.404Z" fill="white"/>
<path d="M512 171.265C512 146.303 491.757 125.995 466.875 125.995H359.209L350.997 132.25C350.997 134.039 359.154 144.262 359.046 145.995H466.875C480.729 145.995 492 157.331 492 171.265V201.347H332.828C324.875 209.333 315.915 215.952 307.118 221.347H492V260.422H20V221.347H217.706C208.909 215.952 199.948 209.333 191.996 201.347H20V171.265C20 157.331 31.271 145.995 45.125 145.995H165.777C165.669 144.262 176.85 136.794 176.85 135.006L165.614 125.995H45.125C20.243 125.995 0 146.303 0 171.265V458.217C0 483.179 20.243 503.487 45.125 503.487H466.874C491.756 503.487 511.999 483.179 511.999 458.217V369.524C511.999 369.311 511.992 369.099 511.978 368.889C511.991 368.679 511.999 368.467 511.999 368.254V171.265H512ZM492 369.523V458.216C492 472.15 480.728 483.486 466.875 483.486H45.125C31.271 483.486 20 472.15 20 458.217V280.422H492V368.254C492 368.467 492.007 368.679 492.021 368.889C492.007 369.099 492 369.31 492 369.523Z" fill="white"/>
<path d="M393.368 326.98C362.161 326.98 336.773 352.441 336.773 383.736C336.773 415.031 362.161 440.491 393.368 440.491C424.575 440.491 449.963 415.031 449.963 383.736C449.963 352.441 424.575 326.98 393.368 326.98V326.98ZM393.368 420.491C373.19 420.491 356.773 404.003 356.773 383.736C356.773 363.468 373.19 346.98 393.368 346.98C413.547 346.98 429.963 363.468 429.963 383.736C429.963 404.003 413.547 420.491 393.368 420.491V420.491Z" fill="white"/>
<path d="M333.281 43.946C308.431 43.946 286.997 29.455 277.025 8.51401H247.799C237.826 29.455 216.393 43.946 191.543 43.946C182.289 43.946 173.509 41.934 165.615 38.332V140.714C165.615 215.597 262.412 241.152 262.412 241.152C262.412 241.152 359.209 215.598 359.209 140.714V38.332C351.315 41.934 342.535 43.946 333.281 43.946V43.946Z" fill="#00B2FF"/>
<path d="M259.234 155.511C256.598 155.511 254.061 154.469 252.184 152.602L234.32 134.839C230.403 130.945 230.386 124.613 234.28 120.697C238.174 116.779 244.507 116.762 248.422 120.657L258.589 130.766L287.32 96.705C290.882 92.484 297.191 91.948 301.412 95.509C305.633 99.07 306.169 105.378 302.608 109.6L266.879 151.958C265.077 154.095 262.464 155.379 259.672 155.501C259.526 155.508 259.379 155.511 259.234 155.511V155.511Z" fill="white"/>
</svg>
