<svg width="512" height="512" viewBox="0 0 512 512" fill="none" xmlns="http://www.w3.org/2000/svg">
<path d="M256 420.745C346.986 420.745 420.745 346.986 420.745 256C420.745 165.014 346.986 91.255 256 91.255C165.014 91.255 91.255 165.014 91.255 256C91.255 346.986 165.014 420.745 256 420.745Z" fill="#00B2FF"/>
<path d="M484.3 201.169H475.821C470.407 179.365 461.813 158.635 450.194 139.349L456.205 133.339C467.005 122.538 467.005 104.966 456.205 94.165L417.836 55.796C407.035 44.997 389.463 44.997 378.662 55.796L372.652 61.807C353.368 50.189 332.636 41.595 310.832 36.18V27.7C310.832 12.427 298.406 0 283.132 0H228.87C213.596 0 201.17 12.427 201.17 27.7V36.179C179.365 41.594 158.634 50.188 139.35 61.806L133.34 55.795C122.539 44.996 104.967 44.996 94.166 55.795L55.796 94.165C44.996 104.966 44.996 122.538 55.796 133.339L61.807 139.349C50.188 158.635 41.594 179.366 36.18 201.169H27.7C12.427 201.169 0 213.595 0 228.869V283.131C0 298.405 12.427 310.831 27.7 310.831H36.179C41.593 332.635 50.187 353.365 61.806 372.651L55.795 378.661C44.995 389.462 44.995 407.034 55.795 417.835L94.164 456.204C104.965 467.003 122.537 467.003 133.338 456.204L139.348 450.193C158.632 461.811 179.364 470.405 201.168 475.82V484.299C201.168 499.572 213.594 511.999 228.868 511.999H283.13C298.404 511.999 310.83 499.572 310.83 484.299V475.82C332.635 470.405 353.366 461.811 372.65 450.193L378.66 456.204C389.461 467.003 407.033 467.003 417.834 456.204L456.203 417.835C467.003 407.034 467.003 389.462 456.203 378.661L450.192 372.651C461.811 353.365 470.405 332.634 475.819 310.831H484.298C499.571 310.831 511.998 298.405 511.998 283.131V228.869C512 213.595 499.573 201.169 484.3 201.169V201.169ZM492 283.131C492 287.377 488.546 290.831 484.3 290.831H467.856C463.128 290.831 459.044 294.144 458.071 298.77C452.819 323.711 443.077 347.214 429.114 368.627C426.532 372.588 427.076 377.817 430.42 381.16L442.063 392.803C445.065 395.805 445.065 400.69 442.063 403.692L403.694 442.061C400.692 445.063 395.807 445.063 392.805 442.061L381.162 430.418C377.818 427.074 372.589 426.533 368.629 429.112C347.218 443.074 323.715 452.816 298.772 458.069C294.145 459.044 290.833 463.126 290.833 467.854V484.3C290.833 488.546 287.379 492 283.133 492H228.871C224.625 492 221.171 488.546 221.171 484.3V467.856C221.171 463.128 217.858 459.045 213.232 458.071C188.289 452.818 164.786 443.076 143.375 429.114C141.702 428.024 139.804 427.491 137.916 427.491C135.334 427.491 132.773 428.488 130.842 430.42L119.199 442.063C116.197 445.065 111.312 445.065 108.31 442.063L69.941 403.694C66.939 400.692 66.939 395.807 69.941 392.805L81.584 381.162C84.928 377.818 85.472 372.59 82.89 368.629C68.927 347.216 59.185 323.713 53.933 298.772C52.959 294.145 48.876 290.833 44.148 290.833H27.7C23.454 290.833 20 287.379 20 283.133V228.871C20 224.625 23.454 221.171 27.7 221.171H44.144C48.873 221.171 52.956 217.858 53.929 213.232C59.181 188.291 68.923 164.788 82.886 143.375C85.468 139.414 84.924 134.186 81.58 130.842L69.937 119.199C66.935 116.197 66.935 111.312 69.937 108.31L108.306 69.941C111.308 66.939 116.193 66.939 119.195 69.941L130.838 81.584C134.183 84.929 139.413 85.471 143.371 82.89C164.782 68.928 188.285 59.186 213.228 53.933C217.855 52.958 221.167 48.876 221.167 44.148V27.7C221.167 23.454 224.621 20 228.867 20H283.129C287.375 20 290.829 23.454 290.829 27.7V44.144C290.829 48.873 294.142 52.955 298.768 53.929C323.711 59.182 347.214 68.924 368.625 82.886C372.586 85.466 377.814 84.924 381.158 81.58L392.801 69.937C395.803 66.935 400.688 66.935 403.69 69.937L442.059 108.306C445.061 111.308 445.061 116.193 442.059 119.195L430.416 130.838C427.072 134.182 426.528 139.41 429.11 143.371C443.073 164.784 452.815 188.287 458.067 213.228C459.041 217.855 463.124 221.167 467.852 221.167H484.3C488.546 221.167 492 224.621 492 228.867V283.131Z" fill="white"/>
<path d="M321.581 225.173L282.866 226.606L288.868 145.627C289.202 141.118 286.47 136.945 282.202 135.45C277.935 133.954 273.195 135.509 270.643 139.241L181.796 269.103C179.701 272.165 179.474 276.134 181.204 279.415C182.934 282.696 186.339 284.75 190.049 284.75H238.979L228.014 365.772C227.384 370.425 230.077 374.89 234.487 376.503C235.614 376.916 236.774 377.113 237.922 377.113C241.263 377.113 244.481 375.432 246.359 372.484L330.387 240.538C332.384 237.402 332.477 233.419 330.629 230.194C328.778 226.97 325.299 225.03 321.581 225.173ZM253.936 323.35L260.333 276.091C260.72 273.232 259.853 270.344 257.953 268.17C256.055 265.997 253.308 264.75 250.423 264.75H209.007L266.178 181.186L262.095 236.272C261.885 239.109 262.893 241.902 264.867 243.951C266.841 245.999 269.591 247.111 272.437 247.005L303.283 245.863L253.936 323.35Z" fill="white"/>
</svg>
