<svg id="Capa_1" enable-background="new 0 0 510 510" height="512" viewBox="0 0 510 510" width="512" xmlns="http://www.w3.org/2000/svg" xmlns:xlink="http://www.w3.org/1999/xlink"><linearGradient id="lg1"><stop offset="0" stop-color="#ffda2d"/><stop offset="1" stop-color="#fdbf00"/></linearGradient><linearGradient id="SVGID_1_" gradientUnits="userSpaceOnUse" x1="164.56" x2="359.208" xlink:href="#lg1" y1="117.774" y2="312.422"/><linearGradient id="lg2"><stop offset="0" stop-color="#ff9100" stop-opacity="0"/><stop offset="1" stop-color="#ff9100"/></linearGradient><linearGradient id="SVGID_2_" gradientUnits="userSpaceOnUse" x1="149.688" x2="379.282" xlink:href="#lg2" y1="103.493" y2="333.087"/><linearGradient id="SVGID_3_" gradientUnits="userSpaceOnUse" x1="180.9" x2="410.494" xlink:href="#lg2" y1="72.281" y2="301.875"/><linearGradient id="SVGID_4_" gradientUnits="userSpaceOnUse" x1="207.348" x2="436.942" xlink:href="#lg2" y1="45.832" y2="275.426"/><linearGradient id="SVGID_5_" gradientUnits="userSpaceOnUse" x1="236.75" x2="466.343" xlink:href="#lg2" y1="16.431" y2="246.025"/><linearGradient id="SVGID_6_" gradientUnits="userSpaceOnUse" x1="263.197" x2="492.791" xlink:href="#lg2" y1="-10.016" y2="219.578"/><linearGradient id="SVGID_7_" gradientUnits="userSpaceOnUse" x1="282.287" x2="511.881" xlink:href="#lg2" y1="-29.106" y2="200.488"/><linearGradient id="SVGID_8_" gradientUnits="userSpaceOnUse" x1="89.707" x2="319.301" xlink:href="#lg2" y1="163.474" y2="393.067"/><linearGradient id="SVGID_9_" gradientUnits="userSpaceOnUse" x1="116.475" x2="346.069" xlink:href="#lg2" y1="136.705" y2="366.299"/><linearGradient id="SVGID_10_" gradientUnits="userSpaceOnUse" x1="142.923" x2="372.517" xlink:href="#lg2" y1="110.257" y2="339.851"/><linearGradient id="SVGID_11_" gradientUnits="userSpaceOnUse" x1="172.325" x2="401.919" xlink:href="#lg2" y1="80.855" y2="310.449"/><linearGradient id="SVGID_12_" gradientUnits="userSpaceOnUse" x1="198.772" x2="428.366" xlink:href="#lg2" y1="54.409" y2="284.003"/><linearGradient id="SVGID_13_" gradientUnits="userSpaceOnUse" x1="228.172" x2="457.766" xlink:href="#lg2" y1="25.009" y2="254.603"/><linearGradient id="SVGID_14_" gradientUnits="userSpaceOnUse" x1="254.62" x2="484.213" xlink:href="#lg2" y1="-1.439" y2="228.155"/><linearGradient id="SVGID_15_" gradientUnits="userSpaceOnUse" x1="64.42" x2="294.013" xlink:href="#lg2" y1="188.761" y2="418.355"/><linearGradient id="SVGID_16_" gradientUnits="userSpaceOnUse" x1="93.82" x2="323.414" xlink:href="#lg2" y1="159.36" y2="388.954"/><linearGradient id="SVGID_17_" gradientUnits="userSpaceOnUse" x1="120.268" x2="349.862" xlink:href="#lg2" y1="132.912" y2="362.506"/><linearGradient id="SVGID_18_" gradientUnits="userSpaceOnUse" x1="149.67" x2="379.264" xlink:href="#lg2" y1="103.51" y2="333.104"/><linearGradient id="SVGID_19_" gradientUnits="userSpaceOnUse" x1="176.117" x2="405.711" xlink:href="#lg2" y1="77.064" y2="306.658"/><linearGradient id="SVGID_20_" gradientUnits="userSpaceOnUse" x1="205.517" x2="435.11" xlink:href="#lg2" y1="47.664" y2="277.258"/><linearGradient id="SVGID_21_" gradientUnits="userSpaceOnUse" x1="228.055" x2="457.649" xlink:href="#lg2" y1="25.125" y2="254.719"/><linearGradient id="SVGID_22_" gradientUnits="userSpaceOnUse" x1="38.792" x2="268.386" xlink:href="#lg2" y1="214.388" y2="443.982"/><linearGradient id="SVGID_23_" gradientUnits="userSpaceOnUse" x1="55.845" x2="285.439" xlink:href="#lg2" y1="197.335" y2="426.929"/><linearGradient id="SVGID_24_" gradientUnits="userSpaceOnUse" x1="85.247" x2="314.841" xlink:href="#lg2" y1="167.933" y2="397.527"/><linearGradient id="SVGID_25_" gradientUnits="userSpaceOnUse" x1="111.694" x2="341.288" xlink:href="#lg2" y1="141.487" y2="371.08"/><linearGradient id="SVGID_26_" gradientUnits="userSpaceOnUse" x1="141.094" x2="370.688" xlink:href="#lg2" y1="112.087" y2="341.681"/><linearGradient id="SVGID_27_" gradientUnits="userSpaceOnUse" x1="171.283" x2="400.877" xlink:href="#lg2" y1="81.898" y2="311.492"/><linearGradient id="SVGID_28_" gradientUnits="userSpaceOnUse" x1="221.002" x2="307.706" y1="369.663" y2="487.772"><stop offset="0" stop-color="#b5dbff"/><stop offset="1" stop-color="#48b2e3"/></linearGradient><linearGradient id="lg3"><stop offset="0" stop-color="#0b799d"/><stop offset="1" stop-color="#07485e"/></linearGradient><linearGradient id="SVGID_29_" gradientTransform="matrix(0 1 1 0 3724 -3724)" gradientUnits="userSpaceOnUse" x1="4088.562" x2="4106.39" xlink:href="#lg3" y1="-3512.406" y2="-3498.822"/><linearGradient id="SVGID_30_" gradientTransform="matrix(0 1 1 0 3724 -3724)" gradientUnits="userSpaceOnUse" x1="4088.562" x2="4106.39" xlink:href="#lg3" y1="-3472.304" y2="-3458.72"/><linearGradient id="SVGID_31_" gradientTransform="matrix(0 1 1 0 3724 -3724)" gradientUnits="userSpaceOnUse" x1="4088.562" x2="4106.39" xlink:href="#lg3" y1="-3432.201" y2="-3418.617"/><linearGradient id="lg4"><stop offset="0" stop-color="#edf5ff"/><stop offset="1" stop-color="#b5dbff"/></linearGradient><linearGradient id="SVGID_32_" gradientUnits="userSpaceOnUse" x1="255" x2="255" xlink:href="#lg4" y1="376.817" y2="411.169"/><linearGradient id="SVGID_33_" gradientUnits="userSpaceOnUse" x1="255" x2="255" xlink:href="#lg4" y1="429.385" y2="463.738"/><linearGradient id="lg5"><stop offset="0" stop-color="#ff637b"/><stop offset="1" stop-color="#e63950"/></linearGradient><linearGradient id="SVGID_34_" gradientUnits="userSpaceOnUse" x1="211.473" x2="225.82" xlink:href="#lg5" y1="295.732" y2="306.663"/><linearGradient id="SVGID_35_" gradientUnits="userSpaceOnUse" x1="251.511" x2="265.858" xlink:href="#lg5" y1="295.732" y2="306.663"/><linearGradient id="SVGID_36_" gradientUnits="userSpaceOnUse" x1="291.549" x2="305.897" xlink:href="#lg5" y1="295.732" y2="306.663"/><linearGradient id="SVGID_37_" gradientUnits="userSpaceOnUse" x1="314.09" x2="146.09" y1="287.685" y2="11.685"><stop offset="0" stop-color="#ffd945" stop-opacity="0"/><stop offset="1" stop-color="#fbed21"/></linearGradient><linearGradient id="SVGID_38_" gradientTransform="matrix(-1 0 0 1 2638 0)" gradientUnits="userSpaceOnUse" x1="2161.338" x2="2146.933" xlink:href="#lg1" y1="195.07" y2="171.405"/><linearGradient id="SVGID_39_" gradientTransform="matrix(-1 0 0 1 2638 0)" gradientUnits="userSpaceOnUse" x1="2610.093" x2="2595.688" xlink:href="#lg1" y1="195.07" y2="171.405"/><linearGradient id="SVGID_40_" gradientTransform="matrix(-.707 -.707 -.707 .707 2010.274 832.683)" gradientUnits="userSpaceOnUse" x1="1473.519" x2="1459.114" xlink:href="#lg1" y1="791.612" y2="767.948"/><linearGradient id="SVGID_41_" gradientTransform="matrix(-.707 -.707 -.707 .707 2010.274 832.683)" gradientUnits="userSpaceOnUse" x1="1922.274" x2="1907.869" xlink:href="#lg1" y1="791.612" y2="767.948"/><linearGradient id="SVGID_42_" gradientTransform="matrix(.707 -.707 .707 .707 627.726 832.683)" gradientUnits="userSpaceOnUse" x1="-31.205" x2="-45.609" xlink:href="#lg1" y1="-713.111" y2="-736.776"/><linearGradient id="SVGID_43_" gradientTransform="matrix(.707 -.707 .707 .707 627.726 832.683)" gradientUnits="userSpaceOnUse" x1="417.551" x2="403.146" xlink:href="#lg1" y1="-713.111" y2="-736.776"/><g><g><g><path d="m443.016 188.016c0-103.96-84.374-188.212-188.379-188.016-103.748.197-188.254 85.388-187.65 189.134.348 59.81 28.624 113.002 72.446 147.197 11.431 8.92 18.126 22.598 18.126 37.098 0 31.251 25.334 56.584 56.584 56.584h81.712c31.251 0 56.584-25.334 56.584-56.584v-.004c0-14.487 6.677-28.164 18.1-37.073 44.111-34.407 72.477-88.059 72.477-148.336z" fill="url(#SVGID_1_)"/><g><path d="m135.67 42.98c-5.51 4.54-10.76 9.39-15.71 14.53v17.01c0 7.06-3.48 10.24-9.21 10.24-4.41 0-7.43-1.88-8.58-5.95-3.32 4.62-6.43 9.41-9.33 14.33 4.51 3.88 10.81 5.54 17.91 5.54 14.12 0 25.18-6.55 25.18-24.16v-27.13c0-1.56-.09-3.03-.26-4.41z" fill="url(#SVGID_2_)"/><path d="m170.13 23.02c-1.13 0-2.15.21-2.97.72l-13.52 8.19c-2.04 1.23-2.96 3.28-2.96 5.43 0 3.17 2.04 6.34 5.01 6.34.72 0 1.64-.2 2.56-.82l2.97-1.84v52.11c0 3.28 3.99 4.92 7.99 4.92 3.99 0 7.98-1.64 7.98-4.92v-65.11c0-3.07-3.79-5.02-7.06-5.02z" fill="url(#SVGID_3_)"/><path d="m222.44 23.23c-14.13 0-25.08 6.55-25.08 24.16v27.13c0 17.61 10.95 24.16 25.08 24.16s25.19-6.55 25.19-24.16v-27.13c0-17.61-11.06-24.16-25.19-24.16zm9.22 51.29c0 7.06-3.48 10.24-9.22 10.24-5.73 0-9.11-3.18-9.11-10.24v-27.13c0-7.07 3.38-10.24 9.11-10.24 5.74 0 9.22 3.17 9.22 10.24z" fill="url(#SVGID_4_)"/><path d="m281.82 23.02c-1.12 0-2.15.21-2.96.72l-13.52 8.19c-2.05 1.23-2.97 3.28-2.97 5.43 0 3.17 2.05 6.34 5.02 6.34.72 0 1.64-.2 2.56-.82l2.97-1.84v52.11c0 3.28 3.99 4.92 7.98 4.92 4 0 7.99-1.64 7.99-4.92v-65.11c0-3.07-3.79-5.02-7.07-5.02z" fill="url(#SVGID_5_)"/><path d="m334.14 23.23c-14.13 0-25.08 6.55-25.08 24.16v27.13c0 17.61 10.95 24.16 25.08 24.16s25.18-6.55 25.18-24.16v-27.13c0-17.61-11.05-24.16-25.18-24.16zm9.21 51.29c0 7.06-3.48 10.24-9.21 10.24s-9.11-3.18-9.11-10.24v-27.13c0-7.07 3.38-10.24 9.11-10.24s9.21 3.17 9.21 10.24z" fill="url(#SVGID_6_)"/><path d="m384.61 51.82v41.33c0 3.28 4 4.92 7.99 4.92s7.98-1.64 7.98-4.92v-24.13c-4.96-6.06-10.3-11.81-15.97-17.2z" fill="url(#SVGID_7_)"/><path d="m82.65 113.07c-2.16 4.93-4.11 9.97-5.84 15.1.9 1.58 1.38 3.67 1.38 6.3v27.13c0 7.06-3.48 10.24-9.22 10.24-.44 0-.86-.02-1.27-.06-.41 4.6-.64 9.25-.69 13.93.64.04 1.3.05 1.96.05 14.13 0 25.19-6.55 25.19-24.16v-27.13c0-11.28-4.53-18.02-11.51-21.4z" fill="url(#SVGID_8_)"/><path d="m128.36 110.1c-1.13 0-2.15.21-2.97.72l-13.52 8.19c-2.04 1.23-2.97 3.27-2.97 5.42 0 3.18 2.05 6.35 5.02 6.35.72 0 1.64-.2 2.56-.82l2.97-1.84v52.11c0 3.28 3.99 4.91 7.98 4.91 4 0 7.99-1.63 7.99-4.91v-65.11c0-3.07-3.79-5.02-7.06-5.02z" fill="url(#SVGID_9_)"/><path d="m180.67 110.31c-14.13 0-25.08 6.55-25.08 24.16v27.13c0 17.61 10.95 24.16 25.08 24.16s25.19-6.55 25.19-24.16v-27.13c0-17.61-11.06-24.16-25.19-24.16zm9.22 51.29c0 7.06-3.49 10.24-9.22 10.24s-9.11-3.18-9.11-10.24v-27.13c0-7.07 3.38-10.24 9.11-10.24s9.22 3.17 9.22 10.24z" fill="url(#SVGID_10_)"/><path d="m240.05 110.1c-1.12 0-2.15.21-2.97.72l-13.51 8.19c-2.05 1.23-2.97 3.27-2.97 5.42 0 3.18 2.05 6.35 5.02 6.35.71 0 1.64-.2 2.56-.82l2.97-1.84v52.11c0 3.28 3.99 4.91 7.98 4.91s7.99-1.63 7.99-4.91v-65.11c0-3.07-3.79-5.02-7.07-5.02z" fill="url(#SVGID_11_)"/><path d="m292.37 110.31c-14.13 0-25.08 6.55-25.08 24.16v27.13c0 17.61 10.95 24.16 25.08 24.16s25.18-6.55 25.18-24.16v-27.13c0-17.61-11.05-24.16-25.18-24.16zm9.21 51.29c0 7.06-3.48 10.24-9.21 10.24s-9.11-3.18-9.11-10.24v-27.13c0-7.07 3.38-10.24 9.11-10.24s9.21 3.17 9.21 10.24z" fill="url(#SVGID_12_)"/><path d="m351.75 110.1c-1.13 0-2.15.21-2.97.72l-13.51 8.19c-2.05 1.23-2.97 3.27-2.97 5.42 0 3.18 2.05 6.35 5.01 6.35.72 0 1.64-.2 2.56-.82l2.97-1.84v52.11c0 3.28 4 4.91 7.99 4.91s7.98-1.63 7.98-4.91v-65.11c0-3.07-3.78-5.02-7.06-5.02z" fill="url(#SVGID_13_)"/><path d="m404.07 110.31c-14.13 0-25.09 6.55-25.09 24.16v27.13c0 17.61 10.96 24.16 25.09 24.16 14.12 0 25.18-6.55 25.18-24.16v-27.13c0-17.61-11.06-24.16-25.18-24.16zm9.21 51.29c0 7.06-3.48 10.24-9.21 10.24-5.74 0-9.12-3.18-9.12-10.24v-27.13c0-7.07 3.38-10.24 9.12-10.24 5.73 0 9.21 3.17 9.21 10.24z" fill="url(#SVGID_14_)"/><path d="m110.75 197.39c-14.13 0-25.09 6.55-25.09 24.16v27.13c0 17.61 10.96 24.16 25.09 24.16 14.12 0 25.18-6.55 25.18-24.16v-27.13c0-17.61-11.06-24.16-25.18-24.16zm9.21 51.29c0 7.06-3.48 10.23-9.21 10.23-5.74 0-9.12-3.17-9.12-10.23v-27.13c0-7.07 3.38-10.24 9.12-10.24 5.73 0 9.21 3.17 9.21 10.24z" fill="url(#SVGID_15_)"/><path d="m170.13 197.18c-1.13 0-2.15.21-2.97.72l-13.52 8.19c-2.04 1.23-2.96 3.27-2.96 5.42 0 3.18 2.04 6.35 5.01 6.35.72 0 1.64-.2 2.56-.82l2.97-1.84v52.11c0 3.28 3.99 4.91 7.99 4.91 3.99 0 7.98-1.63 7.98-4.91v-65.11c0-3.07-3.79-5.02-7.06-5.02z" fill="url(#SVGID_16_)"/><path d="m222.44 197.39c-14.13 0-25.08 6.55-25.08 24.16v27.13c0 17.61 10.95 24.16 25.08 24.16s25.19-6.55 25.19-24.16v-27.13c0-17.61-11.06-24.16-25.19-24.16zm9.22 51.29c0 7.06-3.48 10.23-9.22 10.23-5.73 0-9.11-3.17-9.11-10.23v-27.13c0-7.07 3.38-10.24 9.11-10.24 5.74 0 9.22 3.17 9.22 10.24z" fill="url(#SVGID_17_)"/><path d="m281.82 197.18c-1.12 0-2.15.21-2.96.72l-13.52 8.19c-2.05 1.23-2.97 3.27-2.97 5.42 0 3.18 2.05 6.35 5.02 6.35.72 0 1.64-.2 2.56-.82l2.97-1.84v52.11c0 3.28 3.99 4.91 7.98 4.91 4 0 7.99-1.63 7.99-4.91v-65.11c0-3.07-3.79-5.02-7.07-5.02z" fill="url(#SVGID_18_)"/><path d="m334.14 197.39c-14.13 0-25.08 6.55-25.08 24.16v27.13c0 17.61 10.95 24.16 25.08 24.16s25.18-6.55 25.18-24.16v-27.13c0-17.61-11.05-24.16-25.18-24.16zm9.21 51.29c0 7.06-3.48 10.23-9.21 10.23s-9.11-3.17-9.11-10.23v-27.13c0-7.07 3.38-10.24 9.11-10.24s9.21 3.17 9.21 10.24z" fill="url(#SVGID_19_)"/><path d="m393.52 197.18c-1.13 0-2.15.21-2.97.72l-13.51 8.19c-2.05 1.23-2.97 3.27-2.97 5.42 0 3.18 2.05 6.35 5.02 6.35.71 0 1.63-.2 2.55-.82l2.97-1.84v52.11c0 3.28 4 4.91 7.99 4.91s7.98-1.63 7.98-4.91v-65.11c0-3.07-3.78-5.02-7.06-5.02z" fill="url(#SVGID_20_)"/><path d="m420.75 221.55v27.13c0 7.61 2.05 13.16 5.52 17 4.26-9.37 7.78-19.15 10.46-29.27v-14.86c0-5.03 1.71-8.09 4.76-9.43.62-4.81 1.05-9.69 1.29-14.61-12.62.9-22.03 7.73-22.03 24.04z" fill="url(#SVGID_21_)"/><path d="m128.36 284.26c-1.13 0-2.15.2-2.97.72l-13.52 8.19c-2.04 1.23-2.97 3.27-2.97 5.42 0 3.18 2.05 6.35 5.02 6.35.72 0 1.64-.2 2.56-.82l2.97-1.84v16.02c5.03 5.24 10.36 10.19 15.97 14.81v-43.83c0-3.08-3.79-5.02-7.06-5.02z" fill="url(#SVGID_22_)"/><path d="m180.67 284.46c-14.13 0-25.08 6.56-25.08 24.17v27.13c0 17.6 10.95 24.16 25.08 24.16s25.19-6.56 25.19-24.16v-27.13c0-17.61-11.06-24.17-25.19-24.17zm9.22 51.3c0 7.06-3.49 10.23-9.22 10.23s-9.11-3.17-9.11-10.23v-27.13c0-7.07 3.38-10.24 9.11-10.24s9.22 3.17 9.22 10.24z" fill="url(#SVGID_23_)"/><path d="m240.05 284.26c-1.12 0-2.15.2-2.97.72l-13.51 8.19c-2.05 1.23-2.97 3.27-2.97 5.42 0 3.18 2.05 6.35 5.02 6.35.71 0 1.64-.2 2.56-.82l2.97-1.84v52.11c0 3.27 3.99 4.91 7.98 4.91s7.99-1.64 7.99-4.91v-65.11c0-3.08-3.79-5.02-7.07-5.02z" fill="url(#SVGID_24_)"/><path d="m292.37 284.46c-14.13 0-25.08 6.56-25.08 24.17v27.13c0 17.6 10.95 24.16 25.08 24.16s25.18-6.56 25.18-24.16v-27.13c0-17.61-11.05-24.17-25.18-24.17zm9.21 51.3c0 7.06-3.48 10.23-9.21 10.23s-9.11-3.17-9.11-10.23v-27.13c0-7.07 3.38-10.24 9.11-10.24s9.21 3.17 9.21 10.24z" fill="url(#SVGID_25_)"/><path d="m351.75 284.26c-1.13 0-2.15.2-2.97.72l-13.51 8.19c-2.05 1.23-2.97 3.27-2.97 5.42 0 3.18 2.05 6.35 5.01 6.35.72 0 1.64-.2 2.56-.82l2.97-1.84v52.11c0 3.27 4 4.91 7.99 4.91 1.38 0 3.952-.53 3.952-.53 1.385-4.479 4.028-8.974 4.028-8.974v-60.516c0-3.08-3.78-5.02-7.06-5.02z" fill="url(#SVGID_26_)"/><path d="m404.07 284.46c-14.13 0-25.09 6.56-25.09 24.17v20.72c5.63-4.93 10.97-10.2 15.97-15.78v-4.94c0-7.07 3.38-10.24 9.12-10.24 1.05 0 2.03.11 2.92.33 2.95-4.05 5.74-8.22 8.37-12.5-3.38-1.21-7.21-1.76-11.29-1.76z" fill="url(#SVGID_27_)"/></g><g><path d="m255 510c-53.815 0-97.44-43.625-97.44-97.44v-25.107h194.88v25.107c0 53.815-43.625 97.44-97.44 97.44z" fill="url(#SVGID_28_)"/><g><g><path d="m234.949 374.311v-10.828c0-7.849-6.363-14.211-14.211-14.211h-11.68c-7.849 0-14.211 6.363-14.211 14.211v10.828c0 7.849 6.363 14.211 14.211 14.211h11.68c7.848.001 14.211-6.362 14.211-14.211z" fill="url(#SVGID_29_)"/><path d="m275.051 374.311v-10.828c0-7.849-6.363-14.211-14.211-14.211h-11.68c-7.849 0-14.211 6.363-14.211 14.211v10.828c0 7.849 6.363 14.211 14.211 14.211h11.68c7.849.001 14.211-6.362 14.211-14.211z" fill="url(#SVGID_30_)"/><path d="m315.154 374.311v-10.828c0-7.849-6.363-14.211-14.211-14.211h-11.68c-7.849 0-14.211 6.363-14.211 14.211v10.828c0 7.849 6.363 14.211 14.211 14.211h11.68c7.848.001 14.211-6.362 14.211-14.211z" fill="url(#SVGID_31_)"/></g></g><path d="m150.543 378.299v21.621c0 4.947 5.124 9.161 12.131 10.013 27.195 3.307 58.715 5.199 92.326 5.199 33.612 0 65.131-1.892 92.326-5.199 7.007-.852 12.131-5.066 12.131-10.013v-21.621c0-6.259-8.054-11.032-16.936-10.024-26.075 2.959-55.866 4.639-87.521 4.639s-61.445-1.681-87.521-4.639c-8.882-1.008-16.936 3.765-16.936 10.024z" fill="url(#SVGID_32_)"/><path d="m150.543 430.867v21.621c0 4.947 5.124 9.161 12.131 10.013 27.195 3.307 58.715 5.199 92.326 5.199 33.612 0 65.131-1.892 92.326-5.199 7.007-.852 12.131-5.066 12.131-10.013v-21.621c0-6.258-8.054-11.032-16.936-10.024-26.075 2.959-55.866 4.639-87.521 4.639s-61.445-1.681-87.521-4.639c-8.882-1.008-16.936 3.766-16.936 10.024z" fill="url(#SVGID_33_)"/></g></g></g><g><path d="m220.064 314.091h-10.206c-5.853 0-10.598-4.745-10.598-10.598v-10.206c0-5.853 4.745-10.598 10.598-10.598h10.206c5.853 0 10.598 4.745 10.598 10.598v10.206c.001 5.853-4.744 10.598-10.598 10.598z" fill="url(#SVGID_34_)"/><path d="m260.103 314.091h-10.206c-5.853 0-10.598-4.745-10.598-10.598v-10.206c0-5.853 4.745-10.598 10.598-10.598h10.206c5.853 0 10.598 4.745 10.598 10.598v10.206c0 5.853-4.745 10.598-10.598 10.598z" fill="url(#SVGID_35_)"/><path d="m300.141 314.091h-10.206c-5.853 0-10.598-4.745-10.598-10.598v-10.206c0-5.853 4.745-10.598 10.598-10.598h10.206c5.853 0 10.598 4.745 10.598 10.598v10.206c.001 5.853-4.744 10.598-10.598 10.598z" fill="url(#SVGID_36_)"/></g><circle cx="255" cy="190.609" fill="url(#SVGID_37_)" r="172.609"/><g><g><path d="m467.578 209.432h23.599c10.396 0 18.823-8.427 18.823-18.823 0-10.396-8.427-18.823-18.823-18.823h-23.599c-10.396 0-18.823 8.427-18.823 18.823 0 10.396 8.428 18.823 18.823 18.823z" fill="url(#SVGID_38_)"/><path d="m18.823 209.432h23.599c10.396 0 18.823-8.427 18.823-18.823 0-10.396-8.427-18.823-18.823-18.823h-23.599c-10.396 0-18.823 8.427-18.823 18.823 0 10.396 8.427 18.823 18.823 18.823z" fill="url(#SVGID_39_)"/></g><g><path d="m392.006 354.234 16.687 16.687c7.351 7.351 19.269 7.351 26.62 0 7.351-7.351 7.351-19.269 0-26.62l-16.687-16.687c-7.351-7.351-19.269-7.351-26.62 0-7.351 7.351-7.351 19.269 0 26.62z" fill="url(#SVGID_40_)"/><path d="m74.688 36.916 16.687 16.687c7.351 7.351 19.269 7.351 26.62 0 7.351-7.351 7.351-19.269 0-26.62l-16.687-16.687c-7.351-7.351-19.269-7.351-26.62 0-7.351 7.352-7.351 19.27 0 26.62z" fill="url(#SVGID_41_)"/></g><g><path d="m117.994 354.234-16.687 16.687c-7.351 7.351-19.269 7.351-26.62 0-7.351-7.351-7.351-19.269 0-26.62l16.687-16.687c7.351-7.351 19.269-7.351 26.62 0 7.351 7.351 7.351 19.269 0 26.62z" fill="url(#SVGID_42_)"/><path d="m435.312 36.916-16.687 16.687c-7.351 7.351-19.269 7.351-26.62 0-7.351-7.351-7.351-19.269 0-26.62l16.687-16.687c7.351-7.351 19.269-7.351 26.62 0 7.351 7.352 7.351 19.27 0 26.62z" fill="url(#SVGID_43_)"/></g></g></g></svg>