<?xml version="1.0" encoding="UTF-8"?>
<svg xmlns="http://www.w3.org/2000/svg" width="264" height="33" viewBox="0 0 264 33" fill="none"> <path d="M74.2942 10.4988V12.8728C74.2942 16.3055 73.2131 19.0918 71.0509 21.2317C68.911 23.3493 66.1247 24.4081 62.692 24.4081C59.0364 24.4081 56.0271 23.2378 53.6643 20.8973C51.3238 18.5568 50.1536 15.6702 50.1536 12.2375C50.1536 8.80474 51.3238 5.90698 53.6643 3.54419C56.0048 1.1814 58.9026 0 62.3576 0C64.5421 0 66.5371 0.490391 68.3426 1.47117C70.1705 2.45195 71.597 3.75595 72.6224 5.38315L67.5402 8.29206C67.0721 7.55648 66.3811 6.96578 65.4672 6.51997C64.5755 6.07416 63.5613 5.85125 62.4245 5.85125C60.5744 5.85125 59.0586 6.4531 57.8772 7.65678C56.6959 8.86047 56.1052 10.3985 56.1052 12.2709C56.1052 14.0764 56.6847 15.6033 57.8438 16.8516C59.0252 18.0999 60.6747 18.724 62.7923 18.724C65.5117 18.724 67.3061 17.6986 68.1755 15.6479H62.4914V10.4988H74.2942Z" fill="white"/> <path d="M89.9863 0.501536H95.9378V23.9066H91.3237L83.0651 12.1372V23.9066H77.0801V0.501536H81.7276L89.9863 12.2709V0.501536Z" fill="white"/> <path d="M99.6427 0.501536H105.628V23.9066H99.6427V0.501536Z" fill="white"/> <path d="M120.609 24.3412C118.358 24.3412 116.441 23.8285 114.858 22.8032C113.298 21.7778 112.205 20.3735 111.581 18.5903L114.891 16.651C115.828 19.2813 117.767 20.5964 120.709 20.5964C122.158 20.5964 123.239 20.3178 123.953 19.7605C124.688 19.181 125.056 18.4342 125.056 17.5203C125.056 16.5618 124.666 15.8374 123.886 15.347C123.105 14.8343 121.723 14.2771 119.74 13.6752C118.625 13.3409 117.722 13.0288 117.031 12.739C116.34 12.4492 115.605 12.048 114.825 11.5353C114.067 11.0004 113.498 10.3428 113.119 9.56262C112.74 8.78245 112.551 7.86854 112.551 6.82089C112.551 4.74787 113.287 3.10952 114.758 1.90584C116.229 0.679859 118.001 0.0668706 120.074 0.0668706C121.946 0.0668706 123.585 0.523826 124.989 1.43774C126.393 2.35165 127.474 3.61106 128.232 5.21598L124.989 7.08838C124.008 4.90391 122.37 3.81167 120.074 3.81167C118.959 3.81167 118.068 4.07916 117.399 4.61413C116.73 5.12681 116.396 5.82896 116.396 6.72058C116.396 7.58991 116.73 8.28092 117.399 8.7936C118.09 9.28399 119.327 9.80782 121.11 10.3651C122.002 10.6549 122.649 10.8778 123.05 11.0338C123.473 11.1675 124.053 11.3904 124.788 11.7025C125.546 12.0146 126.115 12.3266 126.494 12.6387C126.873 12.9508 127.274 13.3409 127.697 13.809C128.143 14.2771 128.455 14.812 128.634 15.4139C128.812 16.0157 128.901 16.6956 128.901 17.4535C128.901 19.5711 128.132 21.254 126.594 22.5023C125.078 23.7282 123.083 24.3412 120.609 24.3412Z" fill="white"/> <path d="M140.328 24.3412C137.876 24.3412 135.792 23.4942 134.075 21.8001C132.359 20.106 131.501 18.0219 131.501 15.5476C131.501 13.0734 132.359 10.9892 134.075 9.29513C135.792 7.60106 137.876 6.75402 140.328 6.75402C142.802 6.75402 144.886 7.60106 146.58 9.29513C148.297 10.9892 149.155 13.0734 149.155 15.5476C149.155 18.0219 148.297 20.106 146.58 21.8001C144.886 23.4942 142.802 24.3412 140.328 24.3412ZM136.616 19.3259C137.619 20.3289 138.857 20.8305 140.328 20.8305C141.799 20.8305 143.036 20.3289 144.039 19.3259C145.042 18.3228 145.544 17.0634 145.544 15.5476C145.544 14.0319 145.042 12.7725 144.039 11.7694C143.036 10.7663 141.799 10.2648 140.328 10.2648C138.857 10.2648 137.619 10.7663 136.616 11.7694C135.613 12.7725 135.112 14.0319 135.112 15.5476C135.112 17.0634 135.613 18.3228 136.616 19.3259Z" fill="white"/> <path d="M160.592 3.54419C157.962 3.29899 156.647 4.40237 156.647 6.85432V7.18868H160.592V10.666H156.647V23.9066H153.036V10.666H150.495V7.18868H153.036V6.85432C153.036 4.5584 153.671 2.81975 154.942 1.63835C156.235 0.434665 158.118 -0.0891621 160.592 0.0668706V3.54419Z" fill="white"/> <path d="M172.622 10.666H168.476V18.6906C168.476 19.3816 168.632 19.8831 168.944 20.1952C169.256 20.485 169.713 20.6521 170.315 20.6967C170.939 20.719 171.708 20.7079 172.622 20.6633V23.9066C169.858 24.2409 167.874 24.0069 166.67 23.2044C165.466 22.3797 164.865 20.875 164.865 18.6906V10.666H161.788V7.18868H164.865V3.57762L168.476 2.50768V7.18868H172.622V10.666Z" fill="white"/> <path d="M195.319 7.18868H199.131L193.881 23.9066H190.337L186.86 12.6387L183.349 23.9066H179.805L174.555 7.18868H178.367L181.61 18.724L185.121 7.18868H188.565L192.042 18.724L195.319 7.18868Z" fill="white"/> <path d="M214.377 7.18868H217.988V23.9066H214.377V21.4992C213.018 23.3939 211.067 24.3412 208.526 24.3412C206.23 24.3412 204.269 23.4942 202.641 21.8001C201.014 20.0837 200.201 17.9996 200.201 15.5476C200.201 13.0734 201.014 10.9892 202.641 9.29513C204.269 7.60106 206.23 6.75402 208.526 6.75402C211.067 6.75402 213.018 7.69022 214.377 9.56262V7.18868ZM205.316 19.3927C206.319 20.3958 207.579 20.8973 209.095 20.8973C210.61 20.8973 211.87 20.3958 212.873 19.3927C213.876 18.3674 214.377 17.0857 214.377 15.5476C214.377 14.0096 213.876 12.739 212.873 11.7359C211.87 10.7106 210.61 10.1979 209.095 10.1979C207.579 10.1979 206.319 10.7106 205.316 11.7359C204.313 12.739 203.812 14.0096 203.812 15.5476C203.812 17.0857 204.313 18.3674 205.316 19.3927Z" fill="white"/> <path d="M225.808 9.99729C226.722 7.92427 228.439 6.88776 230.958 6.88776V10.7997C229.576 10.7106 228.372 11.0449 227.347 11.8028C226.321 12.5384 225.808 13.7644 225.808 15.4807V23.9066H222.197V7.18868H225.808V9.99729Z" fill="white"/> <path d="M235.684 17.0857C235.952 18.3562 236.565 19.337 237.523 20.028C238.481 20.6967 239.652 21.0311 241.034 21.0311C242.951 21.0311 244.388 20.3401 245.347 18.9581L248.323 20.6967C246.673 23.1264 244.232 24.3412 241 24.3412C238.281 24.3412 236.085 23.5165 234.413 21.867C232.742 20.1952 231.906 18.0887 231.906 15.5476C231.906 13.0511 232.731 10.9669 234.38 9.29513C236.03 7.60106 238.147 6.75402 240.733 6.75402C243.185 6.75402 245.191 7.6122 246.751 9.32857C248.334 11.0449 249.125 13.1291 249.125 15.5811C249.125 15.96 249.081 16.4615 248.991 17.0857H235.684ZM235.651 14.1433H245.481C245.236 12.7836 244.667 11.7582 243.775 11.0672C242.906 10.3762 241.881 10.0307 240.699 10.0307C239.362 10.0307 238.247 10.3985 237.356 11.1341C236.464 11.8697 235.896 12.8728 235.651 14.1433Z" fill="white"/> <path d="M255.061 2.42744C256.006 1.48232 257.148 1.00976 258.485 1.00976C259.822 1.00976 260.964 1.48232 261.909 2.42744C262.854 3.37255 263.326 4.51382 263.326 5.85125C263.326 7.18868 262.854 8.32996 261.909 9.27507C260.964 10.2202 259.822 10.6927 258.485 10.6927C257.148 10.6927 256.006 10.2202 255.061 9.27507C254.116 8.32996 253.643 7.18868 253.643 5.85125C253.643 4.51382 254.116 3.37255 255.061 2.42744ZM258.485 10.2648C259.698 10.2648 260.727 9.83679 261.574 8.98084C262.43 8.11597 262.858 7.07277 262.858 5.85125C262.858 4.62974 262.43 3.591 261.574 2.73504C260.727 1.87017 259.698 1.43774 258.485 1.43774C257.281 1.43774 256.251 1.87017 255.395 2.73504C254.54 3.591 254.112 4.62974 254.112 5.85125C254.112 7.06386 254.54 8.10259 255.395 8.96747C256.251 9.83234 257.281 10.2648 258.485 10.2648ZM260.518 4.9953C260.518 5.66401 260.255 6.1544 259.729 6.46647L260.745 8.3255H259.408L258.619 6.76071H258.017V8.3255H256.786V3.37701H258.619C259.172 3.37701 259.626 3.53304 259.983 3.84511C260.34 4.14826 260.518 4.53166 260.518 4.9953ZM258.017 4.51382V5.69076H258.552C258.784 5.69076 258.962 5.63727 259.087 5.53027C259.221 5.42328 259.287 5.28062 259.287 5.10229C259.287 4.70998 259.042 4.51382 258.552 4.51382H258.017Z" fill="white"/> <path fill-rule="evenodd" clip-rule="evenodd" d="M18.7818 20.8656C11.0635 26.3656 2.46852 17.8575 4.28164 9.65006C5.07641 6.05281 7.84525 2.90145 11.5176 2.26981C19.3128 0.929255 18.3914 5.58111 22.0846 6.36863L21.149 0.428703C16.5466 -0.0406735 10.3712 -0.641278 6.16248 1.76607C-2.71724 6.8454 -1.83925 19.9046 7.75433 23.6294C11.2934 25.0036 19.625 25.1193 22.7268 23.2646C23.939 21.5828 22.6008 16.897 23.1447 14.3556C26.0928 13.4935 29.8197 13.4019 32.2192 15.4737C34.0065 20.9294 29.2769 28.1959 35.3431 32.3514C34.7041 28.4279 33.1369 27.3138 34.2407 22.9167C36.9229 12.2316 35.9233 11.7915 19.8541 12.3048C18.9892 12.3323 17.6692 12.3045 16.8777 12.3715L15.2169 12.5194C15.0859 12.2988 14.1674 13.7075 16.4045 14.1678C17.1519 14.3215 20.2729 12.9909 18.7818 20.8656Z" fill="white"/> <path d="M33.5438 11.5366C35.3307 11.5366 36.7793 10.088 36.7793 8.30112C36.7793 6.51423 35.3307 5.06566 33.5438 5.06566C31.7569 5.06566 30.3084 6.51423 30.3084 8.30112C30.3084 10.088 31.7569 11.5366 33.5438 11.5366Z" fill="white"/> </svg>