<svg id="Capa_1" enable-background="new 0 0 510 510" height="512" viewBox="0 0 510 510" width="512" xmlns="http://www.w3.org/2000/svg" xmlns:xlink="http://www.w3.org/1999/xlink"><linearGradient id="SVGID_1_" gradientUnits="userSpaceOnUse" x1="108.77" x2="384.977" y1="80.578" y2="356.784"><stop offset="0" stop-color="#b5dbff"/><stop offset="1" stop-color="#76e2f8"/></linearGradient><linearGradient id="lg1"><stop offset="0" stop-color="#b5dbff" stop-opacity="0"/><stop offset=".2428" stop-color="#93cef6" stop-opacity=".243"/><stop offset=".5763" stop-color="#6abfec" stop-opacity=".576"/><stop offset=".8403" stop-color="#51b5e5" stop-opacity=".84"/><stop offset="1" stop-color="#48b2e3"/></linearGradient><linearGradient id="SVGID_2_" gradientUnits="userSpaceOnUse" x1="215.305" x2="393.014" xlink:href="#lg1" y1="116.854" y2="80.72"/><linearGradient id="SVGID_3_" gradientUnits="userSpaceOnUse" x1="251.311" x2="251.311" xlink:href="#lg1" y1="313.944" y2="382.658"/><linearGradient id="SVGID_4_" gradientUnits="userSpaceOnUse" x1="395.996" x2="249.639" y1="459.372" y2="313.015"><stop offset="0" stop-color="#b5dbff" stop-opacity="0"/><stop offset=".1734" stop-color="#8fc5e9" stop-opacity=".173"/><stop offset=".4541" stop-color="#56a4c8" stop-opacity=".454"/><stop offset=".6955" stop-color="#2d8db1" stop-opacity=".696"/><stop offset=".8853" stop-color="#147ea2" stop-opacity=".885"/><stop offset="1" stop-color="#0b799d"/></linearGradient><linearGradient id="SVGID_5_" gradientUnits="userSpaceOnUse" x1="214.897" x2="214.897" xlink:href="#lg1" y1="124.953" y2="215.959"/><linearGradient id="SVGID_6_" gradientUnits="userSpaceOnUse" x1="255" x2="255" xlink:href="#lg1" y1="72.208" y2="220.278"/><linearGradient id="SVGID_7_" gradientUnits="userSpaceOnUse" x1="295.103" x2="295.103" xlink:href="#lg1" y1="155.619" y2="213.448"/><linearGradient id="SVGID_8_" gradientUnits="userSpaceOnUse" x1="63.5" x2="109.251" xlink:href="#lg1" y1="334.193" y2="334.193"/><linearGradient id="SVGID_9_" gradientUnits="userSpaceOnUse" x1="39.5" x2="142.751" xlink:href="#lg1" y1="297.779" y2="297.779"/><linearGradient id="lg2"><stop offset="0" stop-color="#ffda2d"/><stop offset="1" stop-color="#fdbf00"/></linearGradient><linearGradient id="SVGID_10_" gradientUnits="userSpaceOnUse" x1="180.312" x2="266.383" xlink:href="#lg2" y1="272.953" y2="359.024"/><linearGradient id="SVGID_11_" gradientUnits="userSpaceOnUse" x1="345.625" x2="179.928" xlink:href="#lg2" y1="437.462" y2="271.764"/><linearGradient id="lg3"><stop offset="0" stop-color="#b9dd39"/><stop offset="1" stop-color="#0b799d"/></linearGradient><linearGradient id="SVGID_12_" gradientUnits="userSpaceOnUse" x1="348.795" x2="201.802" xlink:href="#lg3" y1="399.022" y2="298.527"/><linearGradient id="SVGID_13_" gradientUnits="userSpaceOnUse" x1="277.275" x2="403.911" xlink:href="#lg3" y1="350.058" y2="476.693"/><linearGradient id="SVGID_14_" gradientUnits="userSpaceOnUse" x1="283" x2="83.877" y1="381.57" y2="381.57"><stop offset="0" stop-color="#0b799d" stop-opacity="0"/><stop offset=".3645" stop-color="#096380" stop-opacity=".365"/><stop offset=".76" stop-color="#084f67" stop-opacity=".76"/><stop offset="1" stop-color="#07485e"/></linearGradient><linearGradient id="lg4"><stop offset="0" stop-color="#ff637b"/><stop offset="1" stop-color="#e63950"/></linearGradient><linearGradient id="SVGID_15_" gradientUnits="userSpaceOnUse" x1="351.23" x2="298.512" xlink:href="#lg4" y1="339.369" y2="286.651"/><linearGradient id="SVGID_16_" gradientUnits="userSpaceOnUse" x1="271.333" x2="389.003" xlink:href="#lg4" y1="329.044" y2="329.044"/><linearGradient id="SVGID_17_" gradientUnits="userSpaceOnUse" x1="324.092" x2="297.092" y1="317.054" y2="280.054"><stop offset="0" stop-color="#e63950" stop-opacity="0"/><stop offset=".0467" stop-color="#e4354b" stop-opacity=".047"/><stop offset=".4669" stop-color="#d31822" stop-opacity=".467"/><stop offset=".7991" stop-color="#c90709" stop-opacity=".799"/><stop offset="1" stop-color="#c50000"/></linearGradient><g><g><path d="m369.219 76.021c-15.263 0-29.954 2.439-43.717 6.931-14.721-48.028-59.411-82.952-112.262-82.952-64.839 0-117.402 52.563-117.402 117.403 0 9.368 1.104 18.478 3.177 27.213-55.335 3.9-99.015 50.02-99.015 106.347 0 58.885 47.735 106.62 106.62 106.62h262.599c77.751 0 140.781-63.03 140.781-140.781s-63.03-140.781-140.781-140.781z" fill="url(#SVGID_1_)"/><path d="m228.435 216.808c0 5.71.343 11.338 1.007 16.871-5.296.746-10.71 1.125-16.207 1.125-64.84 0-117.395-52.566-117.395-117.407 0-64.828 52.555-117.395 117.395-117.395 52.851 0 97.55 34.926 112.265 82.955-56.346 18.375-97.065 71.356-97.065 133.851z" fill="url(#SVGID_2_)"/><path d="m.821 264.234c6.534 52.621 51.408 93.349 105.799 93.349h262.599c61.107 0 113.112-38.936 132.581-93.349z" fill="url(#SVGID_3_)"/></g><path d="m461.083 323.479-101.954-102.37c-27.506-22.747-65.826-29.224-104.129-29.969-90.129-1.754-157.861 64.706-158.496 154.85-.025 3.548-4.923 7.067-4.725 10.56 4.851.676 9.804 1.033 14.841 1.033h262.599c35.106 0 67.208-12.852 91.864-34.104z" fill="url(#SVGID_4_)"/><g><path d="m204.397 90.071h21v119h-21z" fill="url(#SVGID_5_)"/><path d="m244.5 15.453h21v193.618h-21z" fill="url(#SVGID_6_)"/><path d="m284.603 133.453h21v75.618h-21z" fill="url(#SVGID_7_)"/></g><g><path d="m113 323.693v21h-51.998v-21z" fill="url(#SVGID_8_)"/><path d="m113 287.279v21h-84.603v-21z" fill="url(#SVGID_9_)"/></g><g><path d="m359.129 221.109c-27.506-22.747-62.582-36.664-100.885-37.41-90.129-1.754-166.105 72.146-166.74 162.29-.603 85.578 64.546 156.068 147.923 163.946 8.354.789 15.572-5.807 15.572-14.199v-148.568l105.053-105.053c5.916-5.916 5.524-15.675-.923-21.006z" fill="url(#SVGID_10_)"/><path d="m320.219 281.949c-16.662-16.747-39.729-27.115-65.219-27.115-50.81 0-92 41.19-92 92s41.19 92 92 92v-91.667z" fill="url(#SVGID_11_)"/><path d="m346.078 256.09-91.078 91.078v128.804c71.136 0 128.804-57.667 128.804-128.804 0-35.568-14.417-67.769-37.726-91.078z" fill="url(#SVGID_12_)"/><path d="m320.219 281.949-65.219 65.219v91.667c50.81 0 92-41.19 92-92 0-25.321-10.231-48.25-26.781-64.886z" fill="url(#SVGID_13_)"/><path d="m315 287.168-60 60v128.804c21.668 0 42.081-5.358 60-14.81z" fill="url(#SVGID_14_)"/><path d="m359.029 243.139-104.029 104.029 129.372 42.966c5.734 1.904 11.926-1.437 13.387-7.3 2.846-11.419 4.36-23.365 4.36-35.665 0-40.627-16.467-77.407-43.09-104.03z" fill="url(#SVGID_15_)"/><path d="m342.232 376.138c3.091-9.205 4.768-19.058 4.768-29.304 0-25.32-10.231-48.25-26.781-64.885l-65.219 65.219z" fill="url(#SVGID_16_)"/><path d="m307.598 364.636 80.407-80.407c-7.272-15.34-17.112-29.226-28.977-41.09l-104.028 104.029z" fill="url(#SVGID_17_)"/></g></g></svg>