<svg width="512" height="512" viewBox="0 0 512 512" fill="none" xmlns="http://www.w3.org/2000/svg">
<g clip-path="url(#clip0)">
<path d="M173.763 324.093L132.477 365.379L113.989 346.89C110.083 342.986 103.752 342.986 99.8451 346.89L13.4936 433.242C-4.49916 451.235 -4.49916 480.513 13.4936 498.505C22.4899 507.502 34.3084 512 46.1249 512C57.9424 512 69.7609 507.502 78.7573 498.505L165.109 412.154C169.014 408.249 169.014 401.916 165.109 398.01L146.62 379.522L187.906 338.236C191.811 334.331 191.811 327.998 187.906 324.092C184 320.189 177.669 320.189 173.763 324.093V324.093ZM64.6147 484.362C54.4213 494.556 37.8316 494.558 27.6372 484.362C17.4427 474.167 17.4427 457.58 27.6372 447.384L106.916 368.105L143.894 405.083L64.6147 484.362Z" fill="white"/>
<path d="M414.277 198.363C412.366 195.518 366.792 128.7 308.06 128.7C249.327 128.7 203.753 195.519 201.842 198.363C199.575 201.736 199.575 206.144 201.842 209.518C203.753 212.363 249.327 279.179 308.06 279.179C366.792 279.179 412.366 212.362 414.277 209.518C416.543 206.144 416.543 201.736 414.277 198.363V198.363ZM308.06 259.179C268.806 259.179 234.137 218.973 222.548 203.94C234.142 188.902 268.809 148.701 308.06 148.701C347.316 148.701 381.99 188.916 393.578 203.949C382.017 218.989 347.433 259.179 308.06 259.179Z" fill="white"/>
<path d="M308.06 163.598C285.816 163.598 267.718 181.695 267.718 203.94C267.718 226.184 285.816 244.282 308.06 244.282C330.305 244.282 348.402 226.184 348.402 203.94C348.402 181.695 330.305 163.598 308.06 163.598ZM308.06 224.281C296.843 224.281 287.719 215.157 287.719 203.94C287.719 192.724 296.843 183.599 308.06 183.599C319.276 183.599 328.402 192.724 328.402 203.94C328.402 215.157 319.276 224.281 308.06 224.281Z" fill="white"/>
<path d="M452.267 59.7324C372.623 -19.9108 243.496 -19.9108 163.852 59.7324C84.2084 139.376 84.2084 268.503 163.852 348.147C243.495 427.792 372.622 427.791 452.267 348.147C531.911 268.504 531.911 139.376 452.267 59.7324V59.7324ZM409.812 305.692C353.616 361.888 262.504 361.888 206.308 305.692C150.112 249.495 150.112 158.383 206.308 102.188C262.505 45.9919 353.617 45.9919 409.812 102.188C466.007 158.383 466.007 249.496 409.812 305.692Z" fill="#00B2FF"/>
</g>
<defs>
<clipPath id="clip0">
<rect width="512" height="512" fill="white"/>
</clipPath>
</defs>
</svg>
